HIERARCHY
ROOT Hips
{
  OFFSET 1.73907 43.2358 0.0522707
  CHANNELS 6 Xposition Yposition Zposition Zrotation Xrotation Yrotation
  JOINT Bip01_Pelvis
  {
    OFFSET 0 0 0
    CHANNELS 6 Xposition Yposition Zposition Zrotation Xrotation Yrotation
    JOINT BN_Tail_01
    {
      OFFSET -2.28979 -2.39917 0
      CHANNELS 6 Xposition Yposition Zposition Zrotation Xrotation Yrotation
      JOINT BN_Tail_02
      {
        OFFSET 9.67405 0 0
        CHANNELS 6 Xposition Yposition Zposition Zrotation Xrotation Yrotation
        JOINT BN_Tail_03
        {
          OFFSET 10.5192 0 -1.14441e-005
          CHANNELS 6 Xposition Yposition Zposition Zrotation Xrotation Yrotation
          JOINT BN_Tail_04
          {
            OFFSET 8.16754 0 0
            CHANNELS 6 Xposition Yposition Zposition Zrotation Xrotation Yrotation
            End Site
            {
              OFFSET 0 0 0
            }
          }
        }
      }
    }
    JOINT Bip01_Spine
    {
      OFFSET 2.25317 -0.00479889 0
      CHANNELS 6 Xposition Yposition Zposition Zrotation Xrotation Yrotation
      JOINT Bip01_R_Thigh
      {
        OFFSET -2.32652 -0.461891 -2.25534
        CHANNELS 6 Xposition Yposition Zposition Zrotation Xrotation Yrotation
        JOINT Bip01_R_Calf
        {
          OFFSET 9.47902 0 0
          CHANNELS 6 Xposition Yposition Zposition Zrotation Xrotation Yrotation
          JOINT Bip01_R_Foot
          {
            OFFSET 8.42616 0 0
            CHANNELS 6 Xposition Yposition Zposition Zrotation Xrotation Yrotation
            JOINT Bip01_R_Toe1
            {
              OFFSET 1.4015 3.97627 -1.33795
              CHANNELS 6 Xposition Yposition Zposition Zrotation Xrotation Yrotation
              JOINT Bip01_R_Toe11
              {
                OFFSET 2.94553 0 0
                CHANNELS 6 Xposition Yposition Zposition Zrotation Xrotation Yrotation
                JOINT Bip01_R_Toe1Nub
                {
                  OFFSET 2.52656 0 0
                  CHANNELS 6 Xposition Yposition Zposition Zrotation Xrotation Yrotation
                  End Site
                  {
                    OFFSET 0 0 0
                  }
                }
              }
            }
            JOINT Bip01_R_Toe0
            {
              OFFSET 2.09729 6.93129 0.0277901
              CHANNELS 6 Xposition Yposition Zposition Zrotation Xrotation Yrotation
              JOINT Bip01_R_Toe01
              {
                OFFSET 3.0714 0 0
                CHANNELS 6 Xposition Yposition Zposition Zrotation Xrotation Yrotation
                JOINT Bip01_R_Toe0Nub
                {
                  OFFSET 3.37999 0 0
                  CHANNELS 6 Xposition Yposition Zposition Zrotation Xrotation Yrotation
                  End Site
                  {
                    OFFSET 0 0 0
                  }
                }
              }
            }
          }
        }
      }
      JOINT Bip01_L_Thigh
      {
        OFFSET -2.07803 -0.462101 2.48614
        CHANNELS 6 Xposition Yposition Zposition Zrotation Xrotation Yrotation
        JOINT Bip01_L_Calf
        {
          OFFSET 9.47902 0 0
          CHANNELS 6 Xposition Yposition Zposition Zrotation Xrotation Yrotation
          JOINT Bip01_L_Foot
          {
            OFFSET 8.42617 0 0
            CHANNELS 6 Xposition Yposition Zposition Zrotation Xrotation Yrotation
            JOINT Bip01_L_Toe1
            {
              OFFSET 1.40151 3.97627 1.33796
              CHANNELS 6 Xposition Yposition Zposition Zrotation Xrotation Yrotation
              JOINT Bip01_L_Toe11
              {
                OFFSET 2.94554 0 0
                CHANNELS 6 Xposition Yposition Zposition Zrotation Xrotation Yrotation
                JOINT Bip01_L_Toe1Nub
                {
                  OFFSET 2.52656 0 0
                  CHANNELS 6 Xposition Yposition Zposition Zrotation Xrotation Yrotation
                  End Site
                  {
                    OFFSET 0 0 0
                  }
                }
              }
            }
            JOINT Bip01_L_Toe0
            {
              OFFSET 2.0973 6.93128 -0.0277834
              CHANNELS 6 Xposition Yposition Zposition Zrotation Xrotation Yrotation
              JOINT Bip01_L_Toe01
              {
                OFFSET 3.07141 0 0
                CHANNELS 6 Xposition Yposition Zposition Zrotation Xrotation Yrotation
                JOINT Bip01_L_Toe0Nub
                {
                  OFFSET 3.37999 0 0
                  CHANNELS 6 Xposition Yposition Zposition Zrotation Xrotation Yrotation
                  End Site
                  {
                    OFFSET 0 0 0
                  }
                }
              }
            }
          }
        }
      }
      JOINT Bip01_Spine1
      {
        OFFSET 6.17162 -0.00484467 0
        CHANNELS 6 Xposition Yposition Zposition Zrotation Xrotation Yrotation
        JOINT BN_R_Clavicle_01
        {
          OFFSET 6.15897 -2.02444 -2.78435
          CHANNELS 6 Xposition Yposition Zposition Zrotation Xrotation Yrotation
          JOINT BN_R_UpperArm_01
          {
            OFFSET 3.43915 0 0
            CHANNELS 6 Xposition Yposition Zposition Zrotation Xrotation Yrotation
            JOINT BN_R__Forearm_01
            {
              OFFSET 10.2529 0 0
              CHANNELS 6 Xposition Yposition Zposition Zrotation Xrotation Yrotation
              JOINT BN_R_Hand_01
              {
                OFFSET 16.2051 0 0
                CHANNELS 6 Xposition Yposition Zposition Zrotation Xrotation Yrotation
                JOINT BN_R_Finger_07
                {
                  OFFSET 2.2539 2.19923 0.192043
                  CHANNELS 6 Xposition Yposition Zposition Zrotation Xrotation Yrotation
                  End Site
                  {
                    OFFSET 0 0 0
                  }
                }
                JOINT BN_R_Finger_01
                {
                  OFFSET 2.17806 -1.99631 -0.219296
                  CHANNELS 6 Xposition Yposition Zposition Zrotation Xrotation Yrotation
                  End Site
                  {
                    OFFSET 0 0 0
                  }
                }
                JOINT BN_R_Finger_05
                {
                  OFFSET 3.30715 1.42802 0.17391
                  CHANNELS 6 Xposition Yposition Zposition Zrotation Xrotation Yrotation
                  End Site
                  {
                    OFFSET 0 0 0
                  }
                }
                JOINT BN_R_Finger_03
                {
                  OFFSET 3.93641 -0.769831 0.580946
                  CHANNELS 6 Xposition Yposition Zposition Zrotation Xrotation Yrotation
                  End Site
                  {
                    OFFSET 0 0 0
                  }
                }
              }
            }
          }
        }
        JOINT BN_L_Clavicle_01
        {
          OFFSET 6.15897 -2.02445 2.78458
          CHANNELS 6 Xposition Yposition Zposition Zrotation Xrotation Yrotation
          JOINT BN_L_UpperArm_01
          {
            OFFSET 3.43915 0 0
            CHANNELS 6 Xposition Yposition Zposition Zrotation Xrotation Yrotation
            JOINT BN_L__Forearm_01
            {
              OFFSET 10.2529 0 0
              CHANNELS 6 Xposition Yposition Zposition Zrotation Xrotation Yrotation
              JOINT BN_L_Hand_01
              {
                OFFSET 16.2051 0 0
                CHANNELS 6 Xposition Yposition Zposition Zrotation Xrotation Yrotation
                JOINT BN_L_Finger_05
                {
                  OFFSET 3.30715 -1.42803 0.173891
                  CHANNELS 6 Xposition Yposition Zposition Zrotation Xrotation Yrotation
                  End Site
                  {
                    OFFSET 0 0 0
                  }
                }
                JOINT BN_L_Finger_07
                {
                  OFFSET 2.2539 -2.19925 0.19203
                  CHANNELS 6 Xposition Yposition Zposition Zrotation Xrotation Yrotation
                  End Site
                  {
                    OFFSET 0 0 0
                  }
                }
                JOINT BN_L_Finger_01
                {
                  OFFSET 2.17804 1.99629 -0.219303
                  CHANNELS 6 Xposition Yposition Zposition Zrotation Xrotation Yrotation
                  End Site
                  {
                    OFFSET 0 0 0
                  }
                }
                JOINT BN_L_Finger_03
                {
                  OFFSET 3.9364 0.769825 0.580943
                  CHANNELS 6 Xposition Yposition Zposition Zrotation Xrotation Yrotation
                  End Site
                  {
                    OFFSET 0 0 0
                  }
                }
              }
            }
          }
        }
        JOINT Bip01_Neck
        {
          OFFSET 7.02381 -0.81237 0
          CHANNELS 6 Xposition Yposition Zposition Zrotation Xrotation Yrotation
          JOINT Bip01_Head
          {
            OFFSET 1.54249 1.14441e-005 0
            CHANNELS 6 Xposition Yposition Zposition Zrotation Xrotation Yrotation
            JOINT BN_Mouth_01
            {
              OFFSET 2.32836 0.166542 0
              CHANNELS 6 Xposition Yposition Zposition Zrotation Xrotation Yrotation
              End Site
              {
                OFFSET 0 0 0
              }
            }
            JOINT BN_R_Ear_01
            {
              OFFSET 3.4208 -0.773972 -2.25959
              CHANNELS 6 Xposition Yposition Zposition Zrotation Xrotation Yrotation
              End Site
              {
                OFFSET 0 0 0
              }
            }
            JOINT BN_L_Ear_01
            {
              OFFSET 3.4208 -0.773976 2.25975
              CHANNELS 6 Xposition Yposition Zposition Zrotation Xrotation Yrotation
              End Site
              {
                OFFSET 0 0 0
              }
            }
            JOINT Bip01_HeadNub
            {
              OFFSET 6.74789 0 0
              CHANNELS 6 Xposition Yposition Zposition Zrotation Xrotation Yrotation
              End Site
              {
                OFFSET 0 0 0
              }
            }
          }
        }
      }
    }
  }
}
MOTION
Frames:	4
Frame Time:	0.0333333
3.43693 46.1799 0.094427 53.6268 -89.1131 102.247 0 0 0 -89.9965 -3.50835e-015 -90 -2.28979 -2.39919 5.55112e-017 177.324 83.8743 55.6489 9.67406 -2.38419e-007 7.6294e-006 11.4863 0.995905 -10.5293 10.5192 5.96046e-008 7.10543e-015 16.5777 -0.474267 -11.3118 8.16754 -2.86102e-006 -1.14441e-005 19.9373 1.87746 11.356 2.25378 -0.00487518 -0.000416547 -4.69746 4.85993 -3.04149 -2.36821 -0.380264 -2.22721 21.2898 -16.5078 -169.883 9.47903 -3.8147e-006 -9.53675e-007 -35.4872 -1.5124e-006 8.58179e-007 8.42616 3.8147e-006 0 -27.114 -8.17565 -12.5263 1.4015 3.97628 -1.33794 85.5365 -41.2629 29.201 2.94553 3.55272e-015 1.42109e-014 -18.3475 -6.45086e-006 1.02998e-005 2.52656 3.55272e-015 -7.6294e-006 6.89117e-007 4.9015e-006 -7.05721e-007 2.0973 6.9313 0.0278101 65.2585 -7.80096e-006 1.59357e-005 3.07141 7.6294e-006 -4.44089e-016 -65.3707 9.08698e-009 8.08196e-007 3.37999 -1.90735e-006 0 -9.697e-006 -2.00488e-007 9.34203e-007 -2.11701 0.0233631 2.4958 27.6337 8.92068 -164.594 9.47902 0 -9.53675e-007 -40.8908 7.87655e-006 6.84655e-006 8.42617 -3.8147e-006 0 -39.4291 2.3715 4.7632 1.40151 3.97627 1.33796 71.6153 45.8602 -19.575 2.94554 3.8147e-006 -3.55272e-015 -20.3981 -9.17605e-007 1.04864e-006 2.52656 -3.8147e-006 5.72205e-006 -179.96 -5.93499e-005 1.67015e-005 2.0973 6.93129 -0.0277853 54.3342 3.10303e-007 -9.25423e-007 3.0714 1.52588e-005 0 -76.4205 1.87024e-006 1.03767e-005 3.38 -3.8147e-006 0 179.96 -5.1093e-005 -3.06785e-005 6.1717 -0.00487518 -0.000147343 -8.01026 1.68411 -7.18673 6.15899 -2.02445 -2.78435 -178.044 9.65007 77.6464 3.43915 1.90735e-006 -7.10543e-015 78.7843 65.3126 -62.1786 10.2529 3.8147e-006 0 -63.5646 1.35905 0.854415 16.2051 3.55271e-015 0 28.3297 0.208283 17.6917 2.25391 2.19923 0.192036 68.5871 0.527054 12.2934 2.17805 -1.99631 -0.219307 -71.0444 -0.181689 7.61482 3.30715 1.42801 0.173895 22.0312 1.23166 14.5521 3.9364 -0.769837 0.580926 -1.2224 0.405727 39.3824 6.15897 -2.02445 2.78458 1.29162 6.64555 -102.246 3.43915 -1.90735e-006 3.8147e-006 -93.1716 -78.3153 -75.5175 10.2529 3.8147e-006 1.90735e-006 67.8409 -5.28637 6.96414 16.2051 -1.90735e-006 1.90735e-006 -25.4503 -4.51988 22.7683 3.30715 -1.42802 0.17389 -22.0449 -1.13373 0.552345 2.25391 -2.19923 0.192025 -68.6228 -0.533587 8.29405 2.17804 1.99631 -0.219305 71.0446 0.182697 6.61524 3.93639 0.769834 0.580939 0.555005 -2.50247 19.3748 7.02382 -0.81238 0 10.998 -8.90937e-007 1.05486e-005 1.54247 -7.6294e-006 -1.77636e-015 -15.3807 -7.64955 7.65986 2.10595 -0.356756 0.0332334 -69.5195 -0.0116272 -179.983 3.42081 -0.773966 -2.25959 154.422 1.41796 177.05 3.42081 -0.773979 2.25975 -25.7806 1.4477 -12.7099 6.74791 -1.90735e-006 -5.96047e-008 -2.94819e-006 1.45355e-008 -2.85231e-008 
0.210952 47.2002 -0.405745 173.577 -86.3982 -142.367 0 0 0 -90.3074 -0.178414 -89.1007 -2.28979 -2.39919 -2.64295e-011 167.431 80.7894 56.1117 9.67406 -2.38419e-007 7.6294e-006 11.7428 2.34595 -9.94387 10.5192 5.96046e-008 -2.13163e-014 17.1733 -0.243942 -11.0403 8.16754 -2.86102e-006 -1.14441e-005 20.6294 2.12439 1.06575 2.25304 -0.0121108 0.0353664 0.981674 6.27139 -4.8213 -2.44624 -0.212803 -2.20271 0.833737 -18.1446 -176.005 9.47903 -3.8147e-006 -9.53675e-007 -53.8912 -1.053e-006 -1.28462e-007 8.42616 3.8147e-006 3.55271e-015 -24.0471 -11.1149 -9.92601 1.4015 3.97628 -1.33794 85.5366 -41.2629 29.201 2.94553 3.55272e-015 1.42109e-014 -18.3448 -3.57482e-006 4.34598e-007 2.52656 -4.9738e-014 -7.6294e-006 6.89117e-007 4.9015e-006 -7.05721e-007 2.0973 6.9313 0.0278101 65.2585 -7.69685e-006 1.58759e-005 3.07141 7.6294e-006 -4.77396e-015 -65.3707 -8.70318e-008 7.38641e-007 3.37999 -1.90735e-006 -1.77636e-015 -9.697e-006 -2.00488e-007 9.34203e-007 -2.05026 0.306215 2.49961 4.86487 2.38623 -166.341 9.47902 -7.10543e-015 -9.53675e-007 -60.3601 5.02614e-006 8.84955e-006 8.42617 -3.8147e-006 7.10543e-015 -36.1804 -5.91174 2.70803 1.40151 3.97627 1.33796 71.6152 45.8602 -19.575 2.94554 3.8147e-006 1.03029e-013 -20.3981 -6.11372e-007 1.78378e-006 2.52656 -3.8147e-006 5.72205e-006 -179.96 -5.93502e-005 1.67026e-005 2.0973 6.93129 -0.0277854 54.3342 2.68065e-007 -2.91706e-007 3.0714 1.52588e-005 -5.15144e-014 -76.4205 2.67801e-006 1.0119e-005 3.38 -3.8147e-006 4.08562e-014 179.96 -5.10924e-005 -3.06779e-005 6.1717 -0.00487518 -0.000147343 -4.32713 0.241966 -0.0483411 6.15899 -2.02445 -2.78435 -179.004 5.10729 79.3586 3.43915 1.90735e-006 7.10543e-015 28.5652 65.6703 -49.6572 10.2529 3.8147e-006 6.82122e-013 -53.8698 1.4278 0.654043 16.2051 0 -2.84217e-013 19.4997 -7.50725 19.3291 2.25391 2.19923 0.192035 68.5948 0.520511 13.7262 2.17805 -1.99631 -0.219306 -71.0444 -0.181693 7.6148 3.30715 1.42801 0.173895 22.0571 1.25075 21.0266 3.9364 -0.769837 0.580926 -1.169 0.425789 36.4459 6.15897 -2.02445 2.78458 1.29162 6.64555 -102.246 3.43915 -1.90735e-006 3.8147e-006 -73.7791 -74.6736 -79.9763 10.2529 3.8147e-006 1.90735e-006 55.1753 -5.9446 5.23946 16.2051 -1.90735e-006 1.90735e-006 -19.9621 1.0143 22.217 3.30715 -1.42802 0.17389 -22.0721 -1.21318 17.7751 2.25391 -2.19923 0.192025 -68.5838 -0.526256 12.4394 2.17805 1.99631 -0.219305 71.0447 0.182701 6.61524 3.93639 0.769834 0.580939 0.542871 -2.54606 26.727 7.02382 -0.81238 -3.43577e-009 10.998 -8.51066e-007 1.05024e-005 1.54247 -7.6294e-006 -8.21565e-015 -32.9617 -6.40653 5.83885 2.10595 -0.356756 0.0332334 -55.2159 -0.0277405 -179.966 3.42081 -0.773966 -2.25959 158.598 1.23191 179.106 3.42081 -0.773979 2.25975 -21.5042 1.62396 -14.7711 6.74791 -1.90735e-006 -5.96047e-008 -2.94819e-006 1.45355e-008 -2.85231e-008 
-3.08133 48.1627 -0.876796 -178.935 -82.368 -140.272 0 0 0 -90.6197 -0.357175 -88.2101 -2.28979 -2.39919 -8.95088e-011 160.943 78.8427 54.0249 9.67406 -2.38419e-007 7.6294e-006 11.7427 3.54113 -9.3566 10.5192 5.96046e-008 -1.42109e-014 17.2493 -0.215431 -10.7113 8.16754 -2.86102e-006 -1.14441e-005 20.9393 2.16786 -8.46033 2.25231 -0.0192059 0.070452 7.44825 7.58388 -6.88289 -2.51018 -0.0143443 -2.17901 -21.7723 -18.4851 175.979 9.47903 -3.8147e-006 -9.53675e-007 -74.5542 -9.7925e-006 2.58208e-006 8.42616 3.8147e-006 1.77636e-015 -20.7588 -15.3154 -7.92637 1.4015 3.97628 -1.33794 85.5366 -41.2629 29.201 2.94553 3.55272e-015 3.55272e-015 -18.3422 -4.02639e-006 9.20107e-007 2.52656 -7.10543e-014 -7.6294e-006 6.89117e-007 4.9015e-006 -7.05721e-007 2.0973 6.9313 0.0278101 65.2585 -7.61344e-006 1.58431e-005 3.07141 7.6294e-006 -1.42109e-014 -65.3707 -1.50031e-007 6.76524e-007 3.37999 -1.90735e-006 8.88179e-016 -9.697e-006 -2.00488e-007 9.34203e-007 -1.94614 0.613022 2.49323 -20.0619 -4.10811 -171.329 9.47902 3.55271e-015 -9.53675e-007 -81.8375 1.67594e-006 1.00781e-005 8.42617 -3.8147e-006 1.90958e-014 -33.5858 -14.844 -1.04929 1.40151 3.97627 1.33796 71.6152 45.8602 -19.575 2.94554 3.8147e-006 1.74083e-013 -20.3981 -1.32485e-006 2.39235e-006 2.52656 -3.8147e-006 5.72205e-006 -179.96 -5.93526e-005 1.67042e-005 2.0973 6.93129 -0.0277854 54.3342 7.95147e-006 5.57087e-006 3.0714 1.52588e-005 1.77636e-015 -76.4205 2.91415e-006 1.04034e-005 3.38 -3.8147e-006 4.52971e-014 179.96 -5.10915e-005 -3.06778e-005 6.1717 -0.00487518 -0.000147343 0.0856342 -1.24557 7.8657 6.15899 -2.02445 -2.78435 -179.902 0.028581 81.2044 3.43915 1.90735e-006 0 -8.18291 65.1244 -40.0871 10.2529 3.8147e-006 4.54748e-013 -45.3408 1.49443 0.449457 16.2051 0 -1.84741e-013 12.7713 -14.0697 18.8247 2.25391 2.19923 0.192036 68.5729 0.526538 13.2813 2.17805 -1.99631 -0.219307 -71.0444 -0.181688 7.61481 3.30715 1.42801 0.173895 22.0231 1.28384 24.0606 3.9364 -0.769837 0.580926 -1.12034 0.484151 32.349 6.15897 -2.02445 2.78458 1.29162 6.64555 -102.246 3.43915 -1.90735e-006 3.8147e-006 -35.0163 -67.9654 -84.2558 10.2529 3.8147e-006 1.90735e-006 44.1021 -6.52057 3.73934 16.2051 -1.90735e-006 1.90735e-006 -15.3864 5.72945 20.37 3.30715 -1.42802 0.173889 -22.0547 -1.2176 28.3607 2.25391 -2.19923 0.192024 -68.5765 -0.525187 13.3848 2.17805 1.99631 -0.219305 71.0446 0.182701 6.61523 3.93639 0.769833 0.580939 0.549313 -2.58346 30.3802 7.02382 -0.81238 -4.63035e-009 10.998 -7.42052e-007 1.04863e-005 1.54247 -7.6294e-006 -8.88179e-015 -51.8597 -1.70723 5.92502 2.10595 -0.356756 0.0332334 -42.3689 -0.00405884 -179.978 3.42081 -0.773966 -2.25959 162.024 1.12938 -179.279 3.42081 -0.773979 2.25975 -17.9994 1.71869 -16.3873 6.74791 -1.90735e-006 -5.96047e-008 -2.94819e-006 1.45354e-008 -2.85231e-008 
-6.34047 49.1541 -1.36241 -174.571 -78.3187 -140.914 0 0 0 -90.9305 -0.544629 -87.2993 -2.28979 -2.39919 -1.71409e-010 155.721 77.7092 51.3269 9.67406 -2.38419e-007 7.6294e-006 11.4448 4.51174 -8.69011 10.5192 5.96046e-008 -7.10543e-015 17.0295 -0.300963 -10.188 8.16754 -2.86102e-006 -1.14441e-005 20.8756 2.06627 -16.5455 2.25157 -0.0263661 0.105888 13.6275 8.47631 -9.05553 -2.55399 0.184558 -2.15967 -43.1666 -16.5324 168.211 9.47902 -3.8147e-006 -9.53675e-007 -94.0858 -4.69698e-008 9.76741e-007 8.42616 3.8147e-006 -3.55271e-015 -17.6903 -19.5678 -6.88056 1.4015 3.97628 -1.33794 85.5366 -41.2629 29.201 2.94553 -3.55272e-015 -3.55272e-015 -18.3395 -3.74548e-006 -3.84075e-007 2.52656 -9.94761e-014 -7.6294e-006 6.89117e-007 4.9015e-006 -7.05721e-007 2.0973 6.9313 0.0278101 65.2585 -7.52644e-006 1.58403e-005 3.07141 7.6294e-006 -1.95399e-014 -65.3707 -1.87601e-007 5.98629e-007 3.37999 -1.90735e-006 8.88179e-016 -9.697e-006 -2.00488e-007 9.34203e-007 -1.81469 0.884929 2.47777 -44.5125 -8.21578 -178.371 9.47902 0 -9.53675e-007 -102.313 -2.22839e-006 1.04653e-005 8.42617 -3.8147e-006 9.76996e-015 -31.9611 -22.4422 -5.8036 1.40151 3.97627 1.33796 71.6152 45.8602 -19.575 2.94554 3.8147e-006 2.0961e-013 -20.3981 -2.86101e-006 2.79412e-006 2.52656 -3.8147e-006 5.72205e-006 -179.96 -5.93558e-005 1.67061e-005 2.0973 6.93129 -0.0277854 54.3342 6.72296e-006 5.18783e-006 3.0714 1.52588e-005 2.6823e-013 -76.4205 2.68813e-006 1.18647e-005 3.38 -3.8147e-006 2.13163e-014 179.96 -5.10904e-005 -3.06782e-005 6.1717 -0.00487518 -0.000147343 4.35565 -1.88232 15.519 6.15899 -2.02445 -2.78435 179.304 -5.40608 83.0656 3.43915 1.90735e-006 1.42109e-014 -32.3412 64.3062 -33.509 10.2529 3.8147e-006 4.54748e-013 -37.7176 1.54339 0.243953 16.2051 7.10543e-015 -1.52767e-013 7.06977 -19.9225 15.8855 2.25391 2.19923 0.192036 68.5991 0.529278 10.9732 2.17805 -1.99631 -0.219307 -71.0444 -0.181691 7.61481 3.30715 1.42801 0.173895 22.0215 1.31796 23.7552 3.9364 -0.769837 0.580926 -1.03351 0.515309 26.9682 6.15897 -2.02445 2.78458 1.29162 6.64555 -102.246 3.43915 -1.90735e-006 3.8147e-006 -13.0098 -64.2901 -85.638 10.2529 3.8147e-006 1.90735e-006 34.3062 -7.03987 2.41367 16.2051 -1.90735e-006 1.90735e-006 -11.2671 9.85861 17.0474 3.30715 -1.42802 0.17389 -22.0594 -1.2274 32.6236 2.25391 -2.19923 0.192025 -68.6415 -0.517987 11.1622 2.17805 1.99631 -0.219305 71.0446 0.182695 6.61524 3.93639 0.769833 0.580939 0.518071 -2.65006 30.4382 7.02382 -0.81238 -2.9808e-009 10.998 -6.29266e-007 1.05085e-005 1.54247 -7.6294e-006 8.88179e-016 -69.5212 4.50559 9.0028 2.10595 -0.356756 0.0332334 -31.7159 -0.00468445 -179.97 3.42081 -0.773966 -2.25959 164.792 1.11148 -178.059 3.42081 -0.773979 2.25975 -15.1737 1.73519 -17.6065 6.74791 -1.90735e-006 -5.96047e-008 -2.94819e-006 1.45355e-008 -2.85231e-008 
